<svg xmlns="http://www.w3.org/2000/svg" xmlns:xlink="http://www.w3.org/1999/xlink" width="677" zoomAndPan="magnify" viewBox="0 0 507.75 342.749987" height="457" preserveAspectRatio="xMidYMid meet" version="1.0"><defs><clipPath id="b6cc2f0d31"><path d="M 292 108 L 472 108 L 472 191.859375 L 292 191.859375 Z M 292 108 " clip-rule="nonzero"/></clipPath><clipPath id="612ef4fb4f"><path d="M 280.542969 90 L 483.644531 90 L 483.644531 114 L 280.542969 114 Z M 280.542969 90 " clip-rule="nonzero"/></clipPath><clipPath id="a4b57da976"><path d="M 0.0585938 18.140625 L 480 18.140625 L 480 286 L 0.0585938 286 Z M 0.0585938 18.140625 " clip-rule="nonzero"/></clipPath><clipPath id="9335f2bfbb"><path d="M 70 229 L 184 229 L 184 341.90625 L 70 341.90625 Z M 70 229 " clip-rule="nonzero"/></clipPath><clipPath id="ffd43f67eb"><path d="M 324 229 L 437 229 L 437 341.90625 L 324 341.90625 Z M 324 229 " clip-rule="nonzero"/></clipPath><clipPath id="65f28cb822"><path d="M 281 130 L 507.441406 130 L 507.441406 173 L 281 173 Z M 281 130 " clip-rule="nonzero"/></clipPath><clipPath id="1257e64c75"><path d="M 0.0585938 229 L 494 229 L 494 286 L 0.0585938 286 Z M 0.0585938 229 " clip-rule="nonzero"/></clipPath></defs><path fill="#95a537" d="M 383.09375 96.386719 C 385.667969 89.308594 389.625 82.589844 390.476562 75.105469 C 391.394531 67.046875 388.753906 58.152344 392.953125 51.210938 C 394.578125 48.53125 397.074219 46.476562 398.804688 43.863281 C 401.070312 40.445312 401.90625 36.269531 403.910156 32.691406 C 405.914062 29.113281 409.941406 25.996094 413.867188 27.195312 C 418.109375 28.492188 419.488281 33.796875 419.527344 38.230469 C 419.5625 42.660156 419.121094 47.601562 421.972656 51 C 423.800781 53.179688 426.683594 54.265625 428.527344 56.4375 C 431.109375 59.484375 431.074219 64.007812 429.925781 67.828125 C 428.777344 71.648438 426.683594 75.128906 425.488281 78.9375 C 423.769531 84.410156 423.953125 90.398438 421.757812 95.699219 C 419.609375 100.882812 415.394531 104.902344 411.074219 108.480469 C 405.265625 113.289062 394.652344 120.6875 386.496094 117.835938 C 378.203125 114.933594 380.671875 103.03125 383.089844 96.386719 Z M 383.09375 96.386719 " fill-opacity="1" fill-rule="nonzero"/><path fill="#c0c687" d="M 385.378906 123.933594 C 405.683594 99.335938 402.363281 65.273438 414.417969 37.160156 C 414.941406 35.945312 413.148438 34.886719 412.621094 36.113281 C 400.695312 63.929688 403.960938 98.171875 383.90625 122.460938 C 383.0625 123.488281 384.523438 124.964844 385.378906 123.933594 Z M 385.378906 123.933594 " fill-opacity="1" fill-rule="nonzero"/><path fill="#c0c687" d="M 403.699219 78.554688 C 405.050781 73.910156 409.253906 70.378906 412.792969 67.320312 C 416.265625 64.316406 419.847656 61.445312 422.773438 57.878906 C 423.617188 56.851562 422.152344 55.375 421.300781 56.410156 C 418.082031 60.332031 414.066406 63.410156 410.28125 66.753906 C 406.796875 69.839844 403.03125 73.40625 401.695312 78.003906 C 401.320312 79.292969 403.328125 79.839844 403.699219 78.554688 Z M 403.699219 78.554688 " fill-opacity="1" fill-rule="nonzero"/><path fill="#c0c687" d="M 409.84375 70.492188 C 412.296875 69.503906 415.070312 69.847656 417.664062 69.628906 C 420.058594 69.421875 422.429688 69.035156 424.773438 68.507812 C 426.078125 68.210938 425.527344 66.207031 424.21875 66.503906 C 421.554688 67.101562 418.859375 67.507812 416.128906 67.65625 C 413.804688 67.78125 411.488281 67.601562 409.289062 68.488281 C 408.0625 68.980469 408.597656 70.992188 409.84375 70.492188 Z M 409.84375 70.492188 " fill-opacity="1" fill-rule="nonzero"/><path fill="#c0c687" d="M 398.195312 101.023438 C 399.4375 98.757812 402.464844 97.769531 404.703125 96.78125 C 407.28125 95.640625 409.914062 94.597656 412.382812 93.226562 C 416.257812 91.082031 419.5625 88.113281 421.277344 83.972656 C 421.789062 82.738281 419.777344 82.199219 419.273438 83.417969 C 417.25 88.300781 412.484375 91.050781 407.886719 93.136719 C 404.160156 94.828125 398.511719 96.121094 396.398438 99.972656 C 395.753906 101.148438 397.550781 102.195312 398.195312 101.023438 Z M 398.195312 101.023438 " fill-opacity="1" fill-rule="nonzero"/><path fill="#c0c687" d="M 405.753906 96.875 C 409.835938 98.425781 414.105469 99.136719 418.472656 99.015625 C 419.808594 98.976562 419.8125 96.898438 418.472656 96.9375 C 414.273438 97.054688 410.230469 96.359375 406.304688 94.871094 C 405.050781 94.394531 404.511719 96.402344 405.753906 96.875 Z M 405.753906 96.875 " fill-opacity="1" fill-rule="nonzero"/><path fill="#c0c687" d="M 410.34375 93.28125 C 410.507812 88.632812 411.464844 84.140625 413.179688 79.816406 C 413.671875 78.574219 411.660156 78.035156 411.171875 79.265625 C 409.394531 83.757812 408.433594 88.453125 408.265625 93.28125 C 408.21875 94.617188 410.296875 94.617188 410.34375 93.28125 Z M 410.34375 93.28125 " fill-opacity="1" fill-rule="nonzero"/><path fill="#c0c687" d="M 408.6875 56.347656 C 410.890625 52.648438 413.320312 49.097656 416 45.726562 C 416.824219 44.6875 415.359375 43.207031 414.527344 44.253906 C 411.738281 47.769531 409.183594 51.441406 406.890625 55.300781 C 406.203125 56.453125 408.003906 57.5 408.6875 56.347656 Z M 408.6875 56.347656 " fill-opacity="1" fill-rule="nonzero"/><path fill="#c0c687" d="M 409.980469 49.125 C 408.882812 45.121094 407.785156 41.117188 406.691406 37.113281 C 406.335938 35.824219 404.328125 36.371094 404.683594 37.667969 C 405.78125 41.667969 406.875 45.671875 407.972656 49.675781 C 408.324219 50.964844 410.332031 50.417969 409.980469 49.125 Z M 409.980469 49.125 " fill-opacity="1" fill-rule="nonzero"/><path fill="#4c3f34" d="M 411.710938 107.945312 C 411.5 108.128906 411.285156 108.304688 411.074219 108.480469 C 405.265625 113.289062 394.648438 120.691406 386.496094 117.835938 C 378.203125 114.933594 380.671875 103.03125 383.089844 96.386719 C 385.671875 89.308594 389.625 82.589844 390.476562 75.105469 C 391.390625 67.046875 388.753906 58.152344 392.953125 51.214844 C 394.574219 48.53125 397.070312 46.476562 398.808594 43.863281 C 399.414062 42.949219 399.917969 41.976562 400.367188 40.976562 C 401.335938 42.691406 402.511719 44.332031 403.304688 46.097656 C 406.042969 52.179688 407.105469 59.035156 406.199219 65.652344 C 405.96875 67.359375 405.613281 69.113281 406.023438 70.789062 C 406.355469 72.140625 407.152344 73.316406 407.761719 74.570312 C 409.5 78.167969 409.597656 82.386719 408.796875 86.300781 C 408 90.214844 406.367188 93.902344 404.742188 97.550781 C 404.1875 98.789062 403.625 100.160156 404 101.464844 C 404.234375 102.269531 404.804688 102.9375 405.390625 103.539062 C 407.195312 105.386719 409.359375 106.875 411.710938 107.945312 Z M 411.710938 107.945312 " fill-opacity="0.2" fill-rule="nonzero"/><path fill="#95a537" d="M 367.191406 106.816406 C 366.453125 104.113281 366.972656 101.238281 366.722656 98.449219 C 365.925781 89.582031 357.800781 83.347656 353.921875 75.332031 C 350.394531 68.050781 350.523438 59.609375 350.726562 51.523438 C 350.820312 47.710938 350.9375 43.789062 352.449219 40.285156 C 353.960938 36.78125 357.21875 33.75 361.035156 33.683594 C 365.109375 33.609375 368.570312 36.867188 370.386719 40.515625 C 372.199219 44.160156 372.835938 48.269531 374.203125 52.105469 C 375.78125 56.539062 378.363281 60.609375 381.695312 63.933594 C 383.449219 65.679688 385.507812 67.390625 386.058594 69.800781 C 386.578125 72.09375 385.597656 74.421875 385.1875 76.738281 C 384.238281 82.125 386.425781 87.535156 388.773438 92.476562 C 391.121094 97.421875 393.730469 102.507812 393.691406 107.980469 C 393.574219 125.078125 370.214844 117.863281 367.191406 106.816406 Z M 367.191406 106.816406 " fill-opacity="1" fill-rule="nonzero"/><path fill="#c0c687" d="M 357.75 42.242188 C 358.929688 48.761719 363.0625 54.144531 364.792969 60.46875 C 365.800781 64.136719 365.355469 67.871094 365.75 71.609375 C 366.070312 74.636719 366.816406 77.589844 367.984375 80.40625 C 369.09375 83.085938 370.5625 85.597656 372.367188 87.871094 C 374.683594 90.792969 377.574219 93.21875 379.753906 96.25 C 383.59375 101.597656 385.738281 107.929688 389.882812 113.085938 C 390.71875 114.128906 392.183594 112.652344 391.351562 111.617188 C 387.1875 106.429688 385.121094 99.953125 381.140625 94.644531 C 379.210938 92.070312 376.816406 89.917969 374.730469 87.480469 C 372.480469 84.855469 370.691406 81.832031 369.492188 78.585938 C 368.324219 75.425781 367.75 72.128906 367.664062 68.765625 C 367.578125 65.53125 367.566406 62.394531 366.613281 59.273438 C 364.769531 53.222656 360.894531 47.980469 359.753906 41.691406 C 359.515625 40.378906 357.511719 40.933594 357.75 42.242188 Z M 357.75 42.242188 " fill-opacity="1" fill-rule="nonzero"/><path fill="#c0c687" d="M 367.207031 67.582031 C 363.058594 63.886719 359.589844 59.605469 356.851562 54.773438 C 356.195312 53.605469 354.394531 54.652344 355.058594 55.820312 C 357.875 60.800781 361.460938 65.25 365.738281 69.054688 C 366.734375 69.941406 368.210938 68.476562 367.207031 67.582031 Z M 367.207031 67.582031 " fill-opacity="1" fill-rule="nonzero"/><path fill="#c0c687" d="M 364.335938 53.371094 C 364.367188 48.753906 364.921875 44.207031 366.003906 39.722656 C 366.320312 38.421875 364.3125 37.867188 364 39.167969 C 362.871094 43.832031 362.289062 48.574219 362.257812 53.371094 C 362.25 54.710938 364.328125 54.710938 364.335938 53.371094 Z M 364.335938 53.371094 " fill-opacity="1" fill-rule="nonzero"/><path fill="#c0c687" d="M 368.570312 77.363281 C 364.441406 74.648438 360.847656 70.730469 357.164062 67.445312 C 356.167969 66.558594 354.6875 68.023438 355.691406 68.914062 C 359.515625 72.324219 363.226562 76.339844 367.519531 79.160156 C 368.640625 79.898438 369.683594 78.097656 368.570312 77.363281 Z M 368.570312 77.363281 " fill-opacity="1" fill-rule="nonzero"/><path fill="#c0c687" d="M 371.667969 84.007812 C 374.644531 78.175781 377.351562 72.21875 379.800781 66.144531 C 380.300781 64.90625 378.289062 64.367188 377.792969 65.59375 C 375.410156 71.5 372.765625 77.289062 369.871094 82.960938 C 369.265625 84.148438 371.058594 85.203125 371.667969 84.007812 Z M 371.667969 84.007812 " fill-opacity="1" fill-rule="nonzero"/><path fill="#c0c687" d="M 378.289062 93.609375 C 375.523438 94.648438 372.035156 92.738281 369.65625 91.390625 C 368.492188 90.730469 367.441406 92.527344 368.605469 93.1875 C 371.488281 94.820312 375.5 96.871094 378.84375 95.613281 C 380.085938 95.148438 379.546875 93.136719 378.289062 93.609375 Z M 378.289062 93.609375 " fill-opacity="1" fill-rule="nonzero"/><path fill="#c0c687" d="M 363.265625 73.980469 C 361.855469 74.460938 360.449219 74.65625 358.964844 74.574219 C 357.628906 74.503906 357.632812 76.582031 358.964844 76.65625 C 360.617188 76.742188 362.25 76.519531 363.816406 75.984375 C 365.078125 75.558594 364.535156 73.546875 363.265625 73.980469 Z M 363.265625 73.980469 " fill-opacity="1" fill-rule="nonzero"/><path fill="#4c3f34" d="M 393.691406 107.980469 C 393.605469 120.4375 381.183594 119.992188 373.28125 114.5625 C 374.398438 111.683594 374.761719 108.320312 373 105.835938 C 372.179688 104.679688 370.960938 103.8125 370.3125 102.550781 C 368.945312 99.878906 370.601562 96.71875 370.746094 93.722656 C 370.867188 91.285156 369.964844 88.910156 369.796875 86.476562 C 369.570312 83.214844 370.671875 79.992188 370.574219 76.726562 C 370.347656 69.042969 363.648438 62.605469 363.714844 54.914062 C 363.746094 50.863281 366.175781 44.585938 369.867188 39.566406 C 370.050781 39.875 370.226562 40.195312 370.382812 40.515625 C 372.203125 44.164062 372.835938 48.269531 374.203125 52.105469 C 375.785156 56.539062 378.363281 60.609375 381.695312 63.933594 C 383.449219 65.679688 385.507812 67.390625 386.058594 69.800781 C 386.578125 72.097656 385.597656 74.425781 385.1875 76.734375 C 384.238281 82.128906 386.429688 87.535156 388.773438 92.480469 C 391.121094 97.421875 393.730469 102.511719 393.691406 107.980469 Z M 393.691406 107.980469 " fill-opacity="0.2" fill-rule="nonzero"/><path fill="#95a537" d="M 373.273438 87.441406 C 374.085938 81.261719 374.894531 74.867188 373.140625 68.886719 C 371.636719 63.761719 368.292969 59.125 367.976562 53.792969 C 367.570312 46.960938 372.183594 40.910156 373.753906 34.246094 C 374.777344 29.910156 374.527344 25.203125 376.574219 21.242188 C 378.617188 17.285156 384.511719 14.800781 387.507812 18.097656 C 388.792969 19.511719 389.121094 21.519531 389.503906 23.390625 C 390.660156 29.078125 392.800781 34.5625 395.808594 39.527344 C 397.496094 42.316406 399.488281 45.019531 400.261719 48.1875 C 400.902344 50.808594 400.65625 53.546875 400.546875 56.242188 C 400.25 63.566406 401 70.933594 402.769531 78.050781 C 403.761719 82.054688 405.085938 86.046875 405.09375 90.171875 C 405.097656 95.113281 403.210938 99.847656 401.089844 104.308594 C 397.683594 111.464844 391.011719 121.226562 381.988281 116.921875 C 371.097656 111.722656 371.996094 97.1875 373.273438 87.441406 Z M 373.273438 87.441406 " fill-opacity="1" fill-rule="nonzero"/><path fill="#c0c687" d="M 389.789062 131.160156 C 384.652344 105.792969 389.964844 79.90625 387.675781 54.339844 C 387.042969 47.273438 385.804688 40.285156 383.679688 33.511719 C 383.28125 32.238281 381.273438 32.78125 381.675781 34.0625 C 389.441406 58.851562 384.683594 85.007812 385.46875 110.449219 C 385.6875 117.585938 386.367188 124.707031 387.785156 131.710938 C 388.050781 133.023438 390.054688 132.46875 389.789062 131.160156 Z M 389.789062 131.160156 " fill-opacity="1" fill-rule="nonzero"/><path fill="#c0c687" d="M 388.035156 54.886719 C 389.214844 51.183594 390.390625 47.480469 391.566406 43.777344 C 391.972656 42.5 389.964844 41.953125 389.5625 43.226562 C 388.382812 46.929688 387.207031 50.632812 386.03125 54.335938 C 385.625 55.613281 387.632812 56.160156 388.035156 54.886719 Z M 388.035156 54.886719 " fill-opacity="1" fill-rule="nonzero"/><path fill="#c0c687" d="M 387.5625 63.394531 C 384.269531 57.109375 382.253906 49.894531 377.515625 44.46875 C 376.632812 43.457031 375.167969 44.933594 376.042969 45.9375 C 380.636719 51.199219 382.574219 58.347656 385.765625 64.441406 C 386.386719 65.628906 388.183594 64.578125 387.5625 63.394531 Z M 387.5625 63.394531 " fill-opacity="1" fill-rule="nonzero"/><path fill="#c0c687" d="M 388.019531 81.222656 C 389.394531 73.65625 391.15625 65.683594 395.15625 59.019531 C 395.84375 57.867188 394.046875 56.820312 393.359375 57.96875 C 389.261719 64.792969 387.421875 72.921875 386.015625 80.671875 C 385.777344 81.976562 387.78125 82.539062 388.019531 81.222656 Z M 388.019531 81.222656 " fill-opacity="1" fill-rule="nonzero"/><path fill="#c0c687" d="M 387.667969 92.8125 C 385.03125 83.808594 381.550781 74.984375 377.347656 66.59375 C 376.75 65.398438 374.953125 66.449219 375.554688 67.644531 C 379.675781 75.875 383.074219 84.53125 385.664062 93.363281 C 386.039062 94.644531 388.046875 94.097656 387.667969 92.8125 Z M 387.667969 92.8125 " fill-opacity="1" fill-rule="nonzero"/><path fill="#c0c687" d="M 387.425781 106 C 388.550781 101.480469 389.589844 96.878906 391.273438 92.53125 C 393.347656 87.183594 397.289062 82.621094 400.648438 78.046875 C 401.445312 76.964844 399.640625 75.929688 398.855469 76.996094 C 395.472656 81.597656 391.613281 86.148438 389.460938 91.492188 C 387.652344 95.980469 386.589844 100.761719 385.417969 105.445312 C 385.097656 106.742188 387.101562 107.296875 387.425781 105.996094 Z M 387.425781 106 " fill-opacity="1" fill-rule="nonzero"/><path fill="#f99041" d="M 348.726562 119.980469 C 333.125 110.507812 319.257812 97.679688 310.46875 81.691406 C 307.628906 76.53125 305.285156 70.746094 306 64.898438 C 306.71875 59.050781 311.4375 53.355469 317.335938 53.386719 C 321.441406 53.410156 325.050781 56.050781 328.035156 58.871094 C 343.917969 73.890625 350.652344 96.664062 367.757812 110.480469 C 374.308594 115.773438 382.621094 122.742188 379.796875 126.121094 C 372.8125 134.488281 356.019531 124.40625 348.726562 119.980469 Z M 348.726562 119.980469 " fill-opacity="1" fill-rule="nonzero"/><path fill="#4c3f34" d="M 305.332031 81.304688 C 309.589844 79.199219 313.4375 76.460938 316.832031 73.140625 C 317.789062 72.203125 316.320312 70.730469 315.359375 71.667969 C 312.089844 74.871094 308.386719 77.480469 304.28125 79.507812 C 303.082031 80.101562 304.136719 81.894531 305.332031 81.304688 Z M 305.332031 81.304688 " fill-opacity="1" fill-rule="nonzero"/><path fill="#4c3f34" d="M 333.054688 78.746094 C 335.964844 75.835938 338.878906 72.925781 341.789062 70.015625 C 342.738281 69.070312 341.269531 67.597656 340.320312 68.546875 C 337.40625 71.457031 334.496094 74.363281 331.582031 77.273438 C 330.632812 78.222656 332.105469 79.691406 333.054688 78.746094 Z M 333.054688 78.746094 " fill-opacity="1" fill-rule="nonzero"/><path fill="#4c3f34" d="M 319.828125 104.683594 C 324.609375 102.519531 328.804688 99.386719 332.242188 95.421875 C 333.117188 94.417969 331.652344 92.941406 330.769531 93.953125 C 327.4375 97.796875 323.414062 100.789062 318.777344 102.886719 C 317.558594 103.4375 318.617188 105.230469 319.828125 104.683594 Z M 319.828125 104.683594 " fill-opacity="1" fill-rule="nonzero"/><path fill="#4c3f34" d="M 354.257812 107.410156 C 357.507812 104.839844 360.421875 101.929688 362.992188 98.6875 C 363.816406 97.648438 362.355469 96.167969 361.523438 97.214844 C 358.949219 100.460938 356.035156 103.371094 352.789062 105.941406 C 351.738281 106.773438 353.21875 108.234375 354.257812 107.410156 Z M 354.257812 107.410156 " fill-opacity="1" fill-rule="nonzero"/><path fill="#4c3f34" d="M 358.179688 117.015625 C 355.242188 119.453125 352.003906 121.410156 348.503906 122.929688 C 347.277344 123.460938 348.335938 125.25 349.554688 124.722656 C 353.226562 123.132812 356.574219 121.039062 359.652344 118.488281 C 360.683594 117.632812 359.203125 116.167969 358.179688 117.015625 Z M 358.179688 117.015625 " fill-opacity="1" fill-rule="nonzero"/><path fill="#95a537" d="M 310.453125 63.917969 L 286.019531 56.296875 L 288.128906 51.042969 L 305.871094 56.511719 L 288.128906 36.675781 L 293.234375 31.847656 L 309.117188 51.992188 L 308.210938 37.339844 L 313.46875 37.339844 L 316.097656 59.808594 Z M 310.453125 63.917969 " fill-opacity="1" fill-rule="nonzero"/><path fill="#f99041" d="M 360.667969 113.753906 C 347.464844 101.152344 336.6875 85.644531 331.542969 68.144531 C 329.882812 62.492188 328.835938 56.335938 330.796875 50.78125 C 332.753906 45.226562 338.59375 40.679688 344.34375 41.976562 C 348.351562 42.878906 351.304688 46.234375 353.609375 49.628906 C 353.609375 49.628906 353.613281 49.632812 353.613281 49.632812 C 365.890625 67.710938 367.5625 91.398438 381.296875 108.570312 C 386.554688 115.144531 393.167969 123.738281 389.6875 126.429688 C 381.0625 133.101562 366.832031 119.644531 360.667969 113.753906 Z M 360.667969 113.753906 " fill-opacity="1" fill-rule="nonzero"/><path fill="#4c3f34" d="M 326.570312 66.671875 C 331.183594 65.53125 335.535156 63.691406 339.566406 61.179688 C 340.699219 60.472656 339.65625 58.671875 338.515625 59.382812 C 334.628906 61.808594 330.464844 63.566406 326.015625 64.667969 C 324.71875 64.988281 325.269531 66.996094 326.570312 66.671875 Z M 326.570312 66.671875 " fill-opacity="1" fill-rule="nonzero"/><path fill="#4c3f34" d="M 354.199219 70.140625 L 364.613281 63.492188 C 365.738281 62.773438 364.695312 60.972656 363.5625 61.695312 C 360.089844 63.914062 356.621094 66.128906 353.148438 68.34375 C 352.023438 69.0625 353.066406 70.863281 354.199219 70.140625 Z M 354.199219 70.140625 " fill-opacity="1" fill-rule="nonzero"/><path fill="#4c3f34" d="M 335.691406 92.617188 C 340.828125 91.53125 345.605469 89.386719 349.816406 86.253906 C 350.878906 85.464844 349.84375 83.660156 348.765625 84.457031 C 344.6875 87.492188 340.117188 89.5625 335.140625 90.613281 C 333.828125 90.890625 334.382812 92.894531 335.691406 92.617188 Z M 335.691406 92.617188 " fill-opacity="1" fill-rule="nonzero"/><path fill="#4c3f34" d="M 368.738281 102.691406 C 372.546875 100.835938 376.070312 98.554688 379.355469 95.886719 C 380.394531 95.042969 378.917969 93.578125 377.886719 94.414062 C 374.738281 96.972656 371.328125 99.121094 367.6875 100.898438 C 366.484375 101.484375 367.539062 103.277344 368.738281 102.691406 Z M 368.738281 102.691406 " fill-opacity="1" fill-rule="nonzero"/><path fill="#4c3f34" d="M 370.570312 112.871094 C 367.167969 114.621094 363.609375 115.839844 359.855469 116.574219 C 358.542969 116.832031 359.097656 118.835938 360.410156 118.578125 C 364.332031 117.8125 368.070312 116.496094 371.621094 114.667969 C 372.8125 114.054688 371.761719 112.261719 370.570312 112.871094 Z M 370.570312 112.871094 " fill-opacity="1" fill-rule="nonzero"/><path fill="#95a537" d="M 335.355469 50.78125 L 313.136719 38.089844 L 316.324219 33.410156 L 332.476562 42.5625 L 319.417969 19.378906 L 325.441406 15.757812 L 336.617188 38.847656 L 338.890625 24.34375 L 344.023438 25.472656 L 341.75 47.980469 Z M 335.355469 50.78125 " fill-opacity="1" fill-rule="nonzero"/><path fill="#d1573f" d="M 443.359375 76.304688 C 443.359375 76.304688 440.507812 66.566406 424.570312 65.894531 C 408.632812 65.222656 398.554688 102.679688 430.648438 114.832031 C 462.902344 127.046875 480.5 88.792969 465.066406 79.890625 C 449.636719 70.984375 443.359375 76.304688 443.359375 76.304688 Z M 443.359375 76.304688 " fill-opacity="1" fill-rule="nonzero"/><path fill="#95a537" d="M 444.707031 73.796875 C 444.707031 73.796875 445.78125 70.128906 452.273438 70.828125 C 458.765625 71.527344 461.128906 79.886719 461.128906 79.886719 C 458.433594 77.632812 452.410156 75.460938 449.648438 77.207031 C 451.570312 76.871094 453.421875 78.253906 454.441406 79.914062 C 455.464844 81.574219 455.914062 83.515625 456.726562 85.289062 C 457.535156 87.0625 458.898438 88.78125 460.808594 89.160156 C 458.109375 90.078125 455.242188 88.402344 453.054688 86.574219 C 450.867188 84.742188 448.648438 82.574219 445.808594 82.289062 C 444.507812 87.628906 440.386719 92.199219 435.203125 94.050781 C 438.597656 90.582031 436.371094 84.339844 439.027344 80.277344 C 436.816406 81.667969 433.78125 81.617188 431.617188 80.152344 C 428.917969 78.328125 427.714844 74.714844 424.800781 73.257812 C 427.078125 74.042969 429.5625 73.277344 431.964844 73.074219 C 434.574219 72.851562 437.238281 73.320312 439.613281 74.417969 C 435.988281 72.128906 432.546875 69.191406 433.011719 63.878906 C 434.128906 66.453125 437.585938 66.734375 440.042969 68.097656 C 442.523438 69.472656 444.707031 73.796875 444.707031 73.796875 Z M 444.707031 73.796875 " fill-opacity="1" fill-rule="nonzero"/><path fill="#95a537" d="M 443.152344 76.523438 C 443.152344 76.523438 442.921875 66.261719 449.195312 60.382812 C 450.21875 59.421875 451.863281 59.585938 452.6875 60.726562 C 453.351562 61.648438 453.257812 62.917969 452.460938 63.730469 C 450.171875 66.066406 445.804688 71.167969 444.707031 77.109375 Z M 443.152344 76.523438 " fill-opacity="1" fill-rule="nonzero"/><g clip-path="url(#b6cc2f0d31)"><path fill="#ddad68" d="M 440.453125 191.851562 L 323.726562 191.851562 C 310.53125 191.851562 299.488281 181.839844 298.207031 168.71875 L 292.347656 108.703125 L 471.832031 108.703125 L 465.972656 168.71875 C 464.691406 181.839844 453.648438 191.851562 440.453125 191.851562 Z M 440.453125 191.851562 " fill-opacity="1" fill-rule="nonzero"/><path fill="#4c3f34" d="M 471.832031 108.699219 L 465.972656 168.71875 C 464.691406 181.839844 453.648438 191.851562 440.453125 191.851562 L 323.726562 191.851562 C 310.53125 191.851562 299.488281 181.839844 298.207031 168.71875 L 297.765625 164.21875 C 307.625 165.453125 317.261719 168.671875 326.917969 171.234375 C 342.71875 175.433594 358.960938 177.949219 375.292969 178.726562 C 393.527344 179.59375 412.402344 178.152344 428.777344 170.09375 C 445.15625 162.035156 458.628906 146.300781 459.945312 128.105469 C 460.136719 125.488281 459.929688 122.515625 457.945312 120.789062 C 456.199219 119.269531 453.644531 119.230469 451.328125 119.273438 C 421.441406 119.828125 391.5625 120.382812 361.679688 120.9375 C 340.535156 121.328125 315.378906 125.496094 293.703125 122.578125 L 292.347656 108.699219 Z M 471.832031 108.699219 " fill-opacity="0.2" fill-rule="nonzero"/></g><path fill="#ddad68" d="M 467.257812 102.3125 L 456.023438 102.3125 L 456.023438 85.265625 C 456.023438 44.4375 422.777344 11.222656 381.914062 11.222656 C 341.054688 11.222656 307.808594 44.441406 307.808594 85.265625 L 307.808594 102.3125 L 296.574219 102.3125 L 296.574219 85.265625 C 296.574219 38.25 334.859375 0 381.914062 0 C 428.972656 0 467.257812 38.25 467.257812 85.265625 Z M 467.257812 102.3125 " fill-opacity="1" fill-rule="nonzero"/><g clip-path="url(#612ef4fb4f)"><path fill="#ddad68" d="M 292.09375 90.59375 L 472.085938 90.59375 C 472.839844 90.59375 473.589844 90.667969 474.332031 90.8125 C 475.070312 90.960938 475.792969 91.179688 476.488281 91.46875 C 477.1875 91.757812 477.851562 92.113281 478.480469 92.53125 C 479.109375 92.949219 479.6875 93.425781 480.222656 93.960938 C 480.757812 94.496094 481.234375 95.078125 481.65625 95.703125 C 482.074219 96.332031 482.429688 96.996094 482.71875 97.691406 C 483.007812 98.390625 483.226562 99.109375 483.375 99.851562 C 483.519531 100.589844 483.59375 101.339844 483.59375 102.09375 C 483.59375 102.847656 483.519531 103.597656 483.375 104.335938 C 483.226562 105.078125 483.007812 105.796875 482.71875 106.492188 C 482.429688 107.191406 482.074219 107.855469 481.65625 108.480469 C 481.234375 109.109375 480.757812 109.691406 480.222656 110.226562 C 479.6875 110.757812 479.109375 111.234375 478.480469 111.65625 C 477.851562 112.074219 477.1875 112.429688 476.488281 112.71875 C 475.792969 113.007812 475.070312 113.226562 474.332031 113.371094 C 473.589844 113.519531 472.839844 113.59375 472.085938 113.59375 L 292.09375 113.59375 C 291.339844 113.59375 290.589844 113.519531 289.847656 113.371094 C 289.109375 113.226562 288.386719 113.007812 287.691406 112.71875 C 286.992188 112.429688 286.328125 112.074219 285.699219 111.65625 C 285.070312 111.234375 284.492188 110.757812 283.957031 110.226562 C 283.421875 109.691406 282.945312 109.109375 282.523438 108.480469 C 282.105469 107.855469 281.75 107.191406 281.460938 106.492188 C 281.171875 105.796875 280.953125 105.078125 280.804688 104.335938 C 280.660156 103.597656 280.585938 102.847656 280.585938 102.09375 C 280.585938 101.339844 280.660156 100.589844 280.804688 99.851562 C 280.953125 99.109375 281.171875 98.390625 281.460938 97.691406 C 281.75 96.996094 282.105469 96.332031 282.523438 95.703125 C 282.945312 95.078125 283.421875 94.496094 283.957031 93.960938 C 284.492188 93.425781 285.070312 92.949219 285.699219 92.53125 C 286.328125 92.113281 286.992188 91.757812 287.691406 91.46875 C 288.386719 91.179688 289.109375 90.960938 289.847656 90.8125 C 290.589844 90.667969 291.339844 90.59375 292.09375 90.59375 Z M 292.09375 90.59375 " fill-opacity="1" fill-rule="nonzero"/></g><g clip-path="url(#a4b57da976)"><path fill="#dd2e44" d="M 464.925781 285.597656 C 479.003906 285.597656 479.003906 271.523438 479.003906 229.292969 C 479.003906 219.550781 479.003906 174.929688 478.425781 156.964844 C 478.144531 148.464844 467.023438 130.753906 450.847656 130.753906 L 281.90625 130.753906 L 281.90625 46.296875 C 281.90625 31.402344 278.597656 18.140625 253.75 18.140625 L 183.359375 18.140625 C 141.125 18.140625 98.886719 130.753906 98.886719 130.753906 C 98.886719 130.753906 14.417969 130.753906 14.417969 172.984375 L 14.417969 229.292969 C 14.417969 229.292969 0.339844 234.050781 0.339844 256.839844 C 0.339844 279.628906 14.417969 285.597656 28.496094 285.597656 Z M 464.925781 285.597656 " fill-opacity="1" fill-rule="nonzero"/></g><g clip-path="url(#9335f2bfbb)"><path fill="#292f33" d="M 183.359375 285.597656 C 183.359375 287.441406 183.269531 289.28125 183.085938 291.117188 C 182.90625 292.953125 182.636719 294.773438 182.277344 296.582031 C 181.917969 298.390625 181.46875 300.179688 180.933594 301.945312 C 180.398438 303.707031 179.777344 305.441406 179.070312 307.148438 C 178.367188 308.851562 177.578125 310.515625 176.710938 312.140625 C 175.839844 313.769531 174.894531 315.347656 173.867188 316.882812 C 172.84375 318.414062 171.746094 319.894531 170.574219 321.320312 C 169.40625 322.746094 168.167969 324.109375 166.863281 325.414062 C 165.5625 326.71875 164.195312 327.953125 162.769531 329.125 C 161.34375 330.292969 159.863281 331.390625 158.332031 332.417969 C 156.796875 333.441406 155.21875 334.386719 153.589844 335.257812 C 151.964844 336.125 150.300781 336.914062 148.59375 337.621094 C 146.890625 338.324219 145.15625 338.945312 143.390625 339.480469 C 141.628906 340.015625 139.839844 340.464844 138.03125 340.824219 C 136.222656 341.183594 134.398438 341.453125 132.566406 341.632812 C 130.730469 341.816406 128.890625 341.90625 127.046875 341.90625 C 125.199219 341.90625 123.359375 341.816406 121.527344 341.632812 C 119.691406 341.453125 117.867188 341.183594 116.058594 340.824219 C 114.25 340.464844 112.464844 340.015625 110.699219 339.480469 C 108.933594 338.945312 107.199219 338.324219 105.496094 337.621094 C 103.792969 336.914062 102.125 336.125 100.5 335.257812 C 98.871094 334.386719 97.292969 333.441406 95.757812 332.417969 C 94.226562 331.390625 92.746094 330.292969 91.320312 329.125 C 89.894531 327.953125 88.53125 326.71875 87.226562 325.414062 C 85.921875 324.109375 84.683594 322.746094 83.515625 321.320312 C 82.34375 319.894531 81.246094 318.414062 80.222656 316.882812 C 79.199219 315.347656 78.25 313.769531 77.382812 312.140625 C 76.511719 310.515625 75.722656 308.851562 75.019531 307.148438 C 74.3125 305.441406 73.691406 303.707031 73.15625 301.945312 C 72.621094 300.179688 72.175781 298.390625 71.8125 296.582031 C 71.453125 294.773438 71.183594 292.953125 71.003906 291.117188 C 70.824219 289.28125 70.730469 287.441406 70.730469 285.597656 C 70.730469 283.753906 70.824219 281.914062 71.003906 280.078125 C 71.183594 278.246094 71.453125 276.421875 71.8125 274.613281 C 72.175781 272.804688 72.621094 271.019531 73.15625 269.253906 C 73.691406 267.488281 74.3125 265.753906 75.019531 264.050781 C 75.722656 262.347656 76.511719 260.683594 77.382812 259.054688 C 78.25 257.429688 79.199219 255.851562 80.222656 254.316406 C 81.246094 252.785156 82.34375 251.304688 83.515625 249.878906 C 84.683594 248.453125 85.921875 247.089844 87.226562 245.785156 C 88.53125 244.480469 89.894531 243.242188 91.320312 242.074219 C 92.746094 240.902344 94.226562 239.804688 95.757812 238.78125 C 97.292969 237.757812 98.871094 236.808594 100.5 235.941406 C 102.125 235.070312 103.792969 234.285156 105.496094 233.578125 C 107.199219 232.871094 108.933594 232.253906 110.699219 231.714844 C 112.464844 231.179688 114.25 230.734375 116.058594 230.375 C 117.867188 230.015625 119.691406 229.746094 121.527344 229.5625 C 123.359375 229.382812 125.199219 229.292969 127.046875 229.292969 C 128.890625 229.292969 130.730469 229.382812 132.566406 229.5625 C 134.398438 229.746094 136.222656 230.015625 138.03125 230.375 C 139.839844 230.734375 141.628906 231.179688 143.390625 231.714844 C 145.15625 232.253906 146.890625 232.871094 148.59375 233.578125 C 150.300781 234.285156 151.964844 235.070312 153.589844 235.941406 C 155.21875 236.808594 156.796875 237.757812 158.332031 238.78125 C 159.863281 239.804688 161.34375 240.902344 162.769531 242.074219 C 164.195312 243.242188 165.5625 244.480469 166.863281 245.785156 C 168.167969 247.089844 169.40625 248.453125 170.574219 249.878906 C 171.746094 251.304688 172.84375 252.785156 173.867188 254.316406 C 174.894531 255.851562 175.839844 257.429688 176.710938 259.054688 C 177.578125 260.683594 178.367188 262.347656 179.070312 264.050781 C 179.777344 265.753906 180.398438 267.488281 180.933594 269.253906 C 181.46875 271.019531 181.917969 272.804688 182.277344 274.613281 C 182.636719 276.421875 182.90625 278.246094 183.085938 280.078125 C 183.269531 281.914062 183.359375 283.753906 183.359375 285.597656 Z M 183.359375 285.597656 " fill-opacity="1" fill-rule="nonzero"/></g><path fill="#ccd6dd" d="M 155.203125 285.597656 C 155.203125 286.519531 155.15625 287.441406 155.066406 288.359375 C 154.976562 289.277344 154.839844 290.1875 154.660156 291.089844 C 154.480469 291.996094 154.257812 292.890625 153.988281 293.769531 C 153.722656 294.652344 153.410156 295.519531 153.058594 296.371094 C 152.707031 297.226562 152.3125 298.058594 151.878906 298.871094 C 151.441406 299.683594 150.96875 300.472656 150.457031 301.238281 C 149.945312 302.007812 149.394531 302.746094 148.8125 303.460938 C 148.226562 304.171875 147.605469 304.855469 146.953125 305.507812 C 146.304688 306.160156 145.621094 306.777344 144.90625 307.363281 C 144.195312 307.945312 143.453125 308.496094 142.6875 309.007812 C 141.921875 309.519531 141.132812 309.992188 140.316406 310.429688 C 139.503906 310.863281 138.671875 311.257812 137.820312 311.609375 C 136.96875 311.960938 136.101562 312.273438 135.21875 312.539062 C 134.335938 312.808594 133.441406 313.03125 132.539062 313.210938 C 131.632812 313.390625 130.722656 313.527344 129.804688 313.617188 C 128.886719 313.707031 127.96875 313.753906 127.046875 313.753906 C 126.125 313.753906 125.203125 313.707031 124.285156 313.617188 C 123.367188 313.527344 122.457031 313.390625 121.550781 313.210938 C 120.648438 313.03125 119.753906 312.808594 118.871094 312.539062 C 117.988281 312.273438 117.121094 311.960938 116.269531 311.609375 C 115.417969 311.257812 114.585938 310.863281 113.773438 310.429688 C 112.960938 309.992188 112.167969 309.519531 111.402344 309.007812 C 110.636719 308.496094 109.894531 307.945312 109.183594 307.363281 C 108.46875 306.777344 107.789062 306.160156 107.136719 305.507812 C 106.484375 304.855469 105.863281 304.171875 105.28125 303.460938 C 104.695312 302.746094 104.144531 302.007812 103.632812 301.238281 C 103.121094 300.472656 102.648438 299.683594 102.214844 298.871094 C 101.777344 298.058594 101.386719 297.226562 101.03125 296.371094 C 100.679688 295.519531 100.367188 294.652344 100.101562 293.769531 C 99.832031 292.890625 99.609375 291.996094 99.429688 291.089844 C 99.25 290.1875 99.113281 289.277344 99.023438 288.359375 C 98.933594 287.441406 98.886719 286.519531 98.886719 285.597656 C 98.886719 284.675781 98.933594 283.757812 99.023438 282.839844 C 99.113281 281.921875 99.25 281.011719 99.429688 280.105469 C 99.609375 279.203125 99.832031 278.308594 100.101562 277.425781 C 100.367188 276.542969 100.679688 275.675781 101.03125 274.824219 C 101.386719 273.972656 101.777344 273.140625 102.214844 272.328125 C 102.648438 271.515625 103.121094 270.722656 103.632812 269.957031 C 104.144531 269.191406 104.695312 268.453125 105.28125 267.738281 C 105.863281 267.027344 106.484375 266.34375 107.136719 265.691406 C 107.789062 265.039062 108.46875 264.421875 109.183594 263.835938 C 109.894531 263.25 110.636719 262.703125 111.402344 262.191406 C 112.167969 261.679688 112.960938 261.203125 113.773438 260.769531 C 114.585938 260.335938 115.417969 259.941406 116.269531 259.589844 C 117.121094 259.234375 117.988281 258.925781 118.871094 258.65625 C 119.753906 258.390625 120.648438 258.167969 121.550781 257.988281 C 122.457031 257.808594 123.367188 257.671875 124.285156 257.582031 C 125.203125 257.492188 126.125 257.445312 127.046875 257.445312 C 127.96875 257.445312 128.886719 257.492188 129.804688 257.582031 C 130.722656 257.671875 131.632812 257.808594 132.539062 257.988281 C 133.441406 258.167969 134.335938 258.390625 135.21875 258.65625 C 136.101562 258.925781 136.96875 259.234375 137.820312 259.589844 C 138.671875 259.941406 139.503906 260.335938 140.316406 260.769531 C 141.132812 261.203125 141.921875 261.679688 142.6875 262.191406 C 143.453125 262.703125 144.195312 263.25 144.90625 263.835938 C 145.621094 264.421875 146.304688 265.039062 146.953125 265.691406 C 147.605469 266.34375 148.226562 267.027344 148.8125 267.738281 C 149.394531 268.453125 149.945312 269.191406 150.457031 269.957031 C 150.96875 270.722656 151.441406 271.515625 151.878906 272.328125 C 152.3125 273.140625 152.707031 273.972656 153.058594 274.824219 C 153.410156 275.675781 153.722656 276.542969 153.988281 277.425781 C 154.257812 278.308594 154.480469 279.203125 154.660156 280.105469 C 154.839844 281.011719 154.976562 281.921875 155.066406 282.839844 C 155.15625 283.757812 155.203125 284.675781 155.203125 285.597656 Z M 155.203125 285.597656 " fill-opacity="1" fill-rule="nonzero"/><g clip-path="url(#ffd43f67eb)"><path fill="#292f33" d="M 436.769531 285.597656 C 436.769531 287.441406 436.679688 289.28125 436.496094 291.117188 C 436.316406 292.953125 436.046875 294.773438 435.6875 296.582031 C 435.328125 298.390625 434.878906 300.179688 434.34375 301.945312 C 433.808594 303.707031 433.1875 305.441406 432.480469 307.148438 C 431.777344 308.851562 430.988281 310.515625 430.117188 312.140625 C 429.25 313.769531 428.300781 315.347656 427.277344 316.882812 C 426.253906 318.414062 425.15625 319.894531 423.984375 321.320312 C 422.816406 322.746094 421.578125 324.109375 420.273438 325.414062 C 418.96875 326.71875 417.605469 327.953125 416.179688 329.125 C 414.753906 330.292969 413.273438 331.390625 411.742188 332.417969 C 410.207031 333.441406 408.628906 334.386719 407 335.257812 C 405.375 336.125 403.707031 336.914062 402.003906 337.621094 C 400.300781 338.324219 398.566406 338.945312 396.800781 339.480469 C 395.035156 340.015625 393.25 340.464844 391.441406 340.824219 C 389.632812 341.183594 387.808594 341.453125 385.972656 341.632812 C 384.140625 341.816406 382.300781 341.90625 380.453125 341.90625 C 378.609375 341.90625 376.769531 341.816406 374.933594 341.632812 C 373.101562 341.453125 371.277344 341.183594 369.46875 340.824219 C 367.660156 340.464844 365.871094 340.015625 364.109375 339.480469 C 362.34375 338.945312 360.609375 338.324219 358.90625 337.621094 C 357.199219 336.914062 355.535156 336.125 353.910156 335.257812 C 352.28125 334.386719 350.703125 333.441406 349.167969 332.417969 C 347.636719 331.390625 346.15625 330.292969 344.730469 329.125 C 343.304688 327.953125 341.941406 326.71875 340.636719 325.414062 C 339.332031 324.109375 338.09375 322.746094 336.925781 321.320312 C 335.753906 319.894531 334.65625 318.414062 333.632812 316.882812 C 332.609375 315.347656 331.660156 313.769531 330.792969 312.140625 C 329.921875 310.515625 329.132812 308.851562 328.429688 307.148438 C 327.722656 305.441406 327.101562 303.707031 326.566406 301.945312 C 326.03125 300.179688 325.582031 298.390625 325.222656 296.582031 C 324.863281 294.773438 324.59375 292.953125 324.414062 291.117188 C 324.230469 289.28125 324.140625 287.441406 324.140625 285.597656 C 324.140625 283.753906 324.230469 281.914062 324.414062 280.078125 C 324.59375 278.246094 324.863281 276.421875 325.222656 274.613281 C 325.582031 272.804688 326.03125 271.019531 326.566406 269.253906 C 327.101562 267.488281 327.722656 265.753906 328.429688 264.050781 C 329.132812 262.347656 329.921875 260.683594 330.792969 259.054688 C 331.660156 257.429688 332.609375 255.851562 333.632812 254.316406 C 334.65625 252.785156 335.753906 251.304688 336.925781 249.878906 C 338.09375 248.453125 339.332031 247.089844 340.636719 245.785156 C 341.941406 244.480469 343.304688 243.242188 344.730469 242.074219 C 346.15625 240.902344 347.636719 239.804688 349.167969 238.78125 C 350.703125 237.757812 352.28125 236.808594 353.910156 235.941406 C 355.535156 235.070312 357.199219 234.285156 358.90625 233.578125 C 360.609375 232.871094 362.34375 232.253906 364.109375 231.714844 C 365.871094 231.179688 367.660156 230.734375 369.46875 230.375 C 371.277344 230.015625 373.101562 229.746094 374.933594 229.5625 C 376.769531 229.382812 378.609375 229.292969 380.453125 229.292969 C 382.300781 229.292969 384.140625 229.382812 385.972656 229.5625 C 387.808594 229.746094 389.632812 230.015625 391.441406 230.375 C 393.25 230.734375 395.035156 231.179688 396.800781 231.714844 C 398.566406 232.253906 400.300781 232.871094 402.003906 233.578125 C 403.707031 234.285156 405.375 235.070312 407 235.941406 C 408.628906 236.808594 410.207031 237.757812 411.742188 238.78125 C 413.273438 239.804688 414.753906 240.902344 416.179688 242.074219 C 417.605469 243.242188 418.96875 244.480469 420.273438 245.785156 C 421.578125 247.089844 422.816406 248.453125 423.984375 249.878906 C 425.15625 251.304688 426.253906 252.785156 427.277344 254.316406 C 428.300781 255.851562 429.25 257.429688 430.117188 259.054688 C 430.988281 260.683594 431.777344 262.347656 432.480469 264.050781 C 433.1875 265.753906 433.808594 267.488281 434.34375 269.253906 C 434.878906 271.019531 435.328125 272.804688 435.6875 274.613281 C 436.046875 276.421875 436.316406 278.246094 436.496094 280.078125 C 436.679688 281.914062 436.769531 283.753906 436.769531 285.597656 Z M 436.769531 285.597656 " fill-opacity="1" fill-rule="nonzero"/></g><path fill="#ccd6dd" d="M 408.613281 285.597656 C 408.613281 286.519531 408.566406 287.441406 408.476562 288.359375 C 408.386719 289.277344 408.25 290.1875 408.070312 291.089844 C 407.890625 291.996094 407.667969 292.890625 407.398438 293.769531 C 407.132812 294.652344 406.820312 295.519531 406.46875 296.371094 C 406.117188 297.226562 405.722656 298.058594 405.285156 298.871094 C 404.851562 299.683594 404.378906 300.472656 403.867188 301.238281 C 403.355469 302.007812 402.804688 302.746094 402.21875 303.460938 C 401.636719 304.171875 401.015625 304.855469 400.363281 305.507812 C 399.710938 306.160156 399.03125 306.777344 398.316406 307.363281 C 397.605469 307.945312 396.863281 308.496094 396.097656 309.007812 C 395.332031 309.519531 394.542969 309.992188 393.726562 310.429688 C 392.914062 310.863281 392.082031 311.257812 391.230469 311.609375 C 390.378906 311.960938 389.511719 312.273438 388.628906 312.539062 C 387.746094 312.808594 386.851562 313.03125 385.949219 313.210938 C 385.042969 313.390625 384.132812 313.527344 383.214844 313.617188 C 382.296875 313.707031 381.378906 313.753906 380.453125 313.753906 C 379.53125 313.753906 378.613281 313.707031 377.695312 313.617188 C 376.777344 313.527344 375.867188 313.390625 374.960938 313.210938 C 374.058594 313.03125 373.164062 312.808594 372.28125 312.539062 C 371.398438 312.273438 370.53125 311.960938 369.679688 311.609375 C 368.828125 311.257812 367.996094 310.863281 367.183594 310.429688 C 366.367188 309.992188 365.578125 309.519531 364.8125 309.007812 C 364.046875 308.496094 363.304688 307.945312 362.59375 307.363281 C 361.878906 306.777344 361.195312 306.160156 360.546875 305.507812 C 359.894531 304.855469 359.273438 304.171875 358.691406 303.460938 C 358.105469 302.746094 357.554688 302.007812 357.042969 301.238281 C 356.53125 300.472656 356.058594 299.683594 355.621094 298.871094 C 355.1875 298.058594 354.792969 297.226562 354.441406 296.371094 C 354.089844 295.519531 353.777344 294.652344 353.511719 293.769531 C 353.242188 292.890625 353.019531 291.996094 352.839844 291.089844 C 352.660156 290.1875 352.523438 289.277344 352.433594 288.359375 C 352.34375 287.441406 352.296875 286.519531 352.296875 285.597656 C 352.296875 284.675781 352.34375 283.757812 352.433594 282.839844 C 352.523438 281.921875 352.660156 281.011719 352.839844 280.105469 C 353.019531 279.203125 353.242188 278.308594 353.511719 277.425781 C 353.777344 276.542969 354.089844 275.675781 354.441406 274.824219 C 354.792969 273.972656 355.1875 273.140625 355.621094 272.328125 C 356.058594 271.515625 356.53125 270.722656 357.042969 269.957031 C 357.554688 269.191406 358.105469 268.453125 358.691406 267.738281 C 359.273438 267.027344 359.894531 266.34375 360.546875 265.691406 C 361.195312 265.039062 361.878906 264.421875 362.59375 263.835938 C 363.304688 263.25 364.046875 262.703125 364.8125 262.191406 C 365.578125 261.679688 366.367188 261.203125 367.183594 260.769531 C 367.996094 260.335938 368.828125 259.941406 369.679688 259.589844 C 370.53125 259.234375 371.398438 258.925781 372.28125 258.65625 C 373.164062 258.390625 374.058594 258.167969 374.960938 257.988281 C 375.867188 257.808594 376.777344 257.671875 377.695312 257.582031 C 378.613281 257.492188 379.53125 257.445312 380.453125 257.445312 C 381.378906 257.445312 382.296875 257.492188 383.214844 257.582031 C 384.132812 257.671875 385.042969 257.808594 385.949219 257.988281 C 386.851562 258.167969 387.746094 258.390625 388.628906 258.65625 C 389.511719 258.925781 390.378906 259.234375 391.230469 259.589844 C 392.082031 259.941406 392.914062 260.335938 393.726562 260.769531 C 394.542969 261.203125 395.332031 261.679688 396.097656 262.191406 C 396.863281 262.703125 397.605469 263.25 398.316406 263.835938 C 399.03125 264.421875 399.710938 265.039062 400.363281 265.691406 C 401.015625 266.34375 401.636719 267.027344 402.21875 267.738281 C 402.804688 268.453125 403.355469 269.191406 403.867188 269.957031 C 404.378906 270.722656 404.851562 271.515625 405.285156 272.328125 C 405.722656 273.140625 406.117188 273.972656 406.46875 274.824219 C 406.820312 275.675781 407.132812 276.542969 407.398438 277.425781 C 407.667969 278.308594 407.890625 279.203125 408.070312 280.105469 C 408.25 281.011719 408.386719 281.921875 408.476562 282.839844 C 408.566406 283.757812 408.613281 284.675781 408.613281 285.597656 Z M 408.613281 285.597656 " fill-opacity="1" fill-rule="nonzero"/><path fill="#bbddf5" d="M 141.125 116.679688 C 141.125 130.753906 147.429688 130.753906 155.203125 130.753906 L 225.59375 130.753906 C 233.378906 130.753906 239.671875 124.449219 239.671875 116.679688 L 239.671875 60.371094 C 239.671875 52.601562 233.378906 46.296875 225.59375 46.296875 L 183.359375 46.296875 C 169.28125 46.296875 141.125 102.601562 141.125 116.679688 Z M 141.125 116.679688 " fill-opacity="1" fill-rule="nonzero"/><g clip-path="url(#65f28cb822)"><path fill="#f492a9" d="M 507.160156 151.871094 C 507.160156 163.527344 497.699219 172.984375 486.042969 172.984375 L 281.90625 172.984375 L 281.90625 130.753906 L 486.042969 130.753906 C 497.699219 130.753906 507.160156 140.199219 507.160156 151.871094 Z M 507.160156 151.871094 " fill-opacity="1" fill-rule="nonzero"/></g><path fill="#99aab5" d="M 14.417969 172.984375 L 28.496094 172.984375 L 28.496094 243.367188 L 14.417969 243.367188 Z M 14.417969 172.984375 " fill-opacity="1" fill-rule="nonzero"/><g clip-path="url(#1257e64c75)"><path fill="#ccd6dd" d="M 28.496094 285.597656 L 14.417969 285.597656 C 6.675781 285.597656 0.339844 279.265625 0.339844 271.523438 L 0.339844 243.367188 C 0.339844 235.625 6.675781 229.292969 14.417969 229.292969 L 28.496094 229.292969 C 36.238281 229.292969 42.574219 235.625 42.574219 243.367188 L 42.574219 271.523438 C 42.574219 279.265625 36.238281 285.597656 28.496094 285.597656 Z M 479.003906 285.597656 L 464.925781 285.597656 C 457.183594 285.597656 450.847656 279.265625 450.847656 271.523438 L 450.847656 243.367188 C 450.847656 235.625 457.183594 229.292969 464.925781 229.292969 L 479.003906 229.292969 C 486.746094 229.292969 493.082031 235.625 493.082031 243.367188 L 493.082031 271.523438 C 493.082031 279.265625 486.746094 285.597656 479.003906 285.597656 Z M 479.003906 285.597656 " fill-opacity="1" fill-rule="nonzero"/></g></svg>